<svg width="1235" height="1235" viewBox="0 0 1235 1235" fill="none" xmlns="http://www.w3.org/2000/svg">
<g clip-path="url(#clip0_5_230)">
<rect width="1235" height="1235" rx="98.8" fill="#FF8C4B"/>
<rect width="1235" height="1235" fill="#FF8C4B" fill-opacity="0.2"/>
<path d="M548.926 694.589C579.999 705.957 616 711.641 656.926 711.641C697.853 711.641 733.853 703.683 764.927 687.767C802.064 624.104 820.633 547.935 820.633 459.26C820.633 369.828 805.096 325.112 774.022 325.112C735.369 325.112 691.79 364.144 643.284 442.208C595.536 520.271 564.084 604.398 548.926 694.589ZM548.926 461.534C629.263 303.133 718.316 223.932 816.086 223.932C867.623 223.932 904.381 245.154 926.36 287.596C949.097 329.28 960.466 382.334 960.466 446.755C960.466 539.219 933.181 623.346 878.612 699.136C824.043 774.926 755.453 812.821 672.842 812.821C625.852 812.821 583.031 805.242 544.378 790.084C545.894 893.916 552.336 989.033 563.705 1075.43C539.452 1084.53 514.441 1089.08 488.672 1089.08C462.904 1089.08 441.683 1080.36 425.009 1062.93C408.335 1046.25 399.998 1020.49 399.998 985.622C399.998 950.759 404.545 891.264 413.64 807.137C422.735 723.01 427.282 657.073 427.282 609.325C427.282 451.681 418.946 330.038 402.272 244.396C426.525 235.301 451.914 230.753 478.441 230.753C505.725 230.753 526.567 238.711 540.968 254.627C556.126 269.785 563.705 294.038 563.705 327.386C563.705 359.975 558.778 404.692 548.926 461.534Z" fill="white"/>
<path d="M708.27 319.017C738.903 272.84 810.567 290.842 815.742 346.014L849.33 704.138C853.117 744.512 815.838 776.496 776.509 766.616L544.078 708.229C504.748 698.35 487.01 652.546 509.427 618.754L708.27 319.017Z" fill="white"/>
<g clip-path="url(#clip1_5_230)">
<path fill-rule="evenodd" clip-rule="evenodd" d="M819.356 419.447L830.248 403.476C833.255 399.067 832.117 393.049 827.709 390.045C823.302 387.037 817.281 388.176 814.277 392.584L803.382 408.556C800.378 412.964 801.516 418.982 805.921 421.987C810.33 424.994 816.349 423.856 819.356 419.447Z" fill="#F66E2D"/>
<path fill-rule="evenodd" clip-rule="evenodd" d="M758.635 444.02C723.742 466.254 671.657 499.444 632.27 524.545C621.447 531.442 616.444 544.63 619.971 556.972C623.497 569.31 634.715 577.865 647.547 577.998C664.777 578.181 681.637 578.359 692.709 578.475C696.611 578.516 700.106 580.899 701.567 584.517L718.496 626.388C723.308 638.285 735.367 645.603 748.141 644.385C760.918 643.162 771.37 633.691 773.84 621.097L802.676 474.057C804.909 462.673 800.144 451.054 790.559 444.517C780.974 437.98 768.418 437.785 758.635 444.02ZM734.828 543.392L759.756 506.836C762.764 502.43 761.626 496.409 757.217 493.405C752.811 490.397 746.79 491.535 743.786 495.944L718.854 532.498C715.85 536.906 716.987 542.925 721.394 545.932C725.802 548.936 731.82 547.798 734.828 543.392Z" fill="#F66E2D"/>
<path fill-rule="evenodd" clip-rule="evenodd" d="M824.274 519.061L840.248 529.956C844.653 532.96 850.675 531.822 853.679 527.417C856.686 523.007 855.549 516.989 851.139 513.982L835.169 503.09C830.76 500.083 824.741 501.221 821.734 505.63C818.73 510.036 819.868 516.057 824.274 519.061Z" fill="#F66E2D"/>
<path fill-rule="evenodd" clip-rule="evenodd" d="M686.604 425.168L702.575 436.063C706.984 439.068 713.002 437.93 716.006 433.524C719.014 429.115 717.876 423.097 713.467 420.09L697.496 409.198C693.087 406.191 687.069 407.328 684.064 411.737C681.057 416.143 682.195 422.164 686.604 425.168Z" fill="#F66E2D"/>
<path fill-rule="evenodd" clip-rule="evenodd" d="M768.526 401.279L764.934 382.282C763.943 377.039 758.884 373.588 753.641 374.579C748.4 375.57 744.947 380.631 745.938 385.873L749.529 404.87C750.52 410.113 755.583 413.563 760.824 412.572C766.066 411.581 769.517 406.522 768.526 401.279Z" fill="#F66E2D"/>
<mask id="mask0_5_230" style="mask-type:luminance" maskUnits="userSpaceOnUse" x="827" y="443" width="43" height="28">
<path d="M865.998 443.921L869.634 463.152L831.544 470.353L827.908 451.122L865.998 443.921Z" fill="white"/>
</mask>
<g mask="url(#mask0_5_230)">
<path fill-rule="evenodd" clip-rule="evenodd" d="M841.201 468.471L860.198 464.88C865.438 463.889 868.891 458.826 867.9 453.586C866.909 448.343 861.846 444.892 856.607 445.883L837.61 449.474C832.367 450.466 828.916 455.526 829.907 460.769C830.898 466.009 835.958 469.462 841.201 468.471Z" fill="#F66E2D"/>
</g>
</g>
</g>
<defs>
<clipPath id="clip0_5_230">
<rect width="1235" height="1235" rx="98.8" fill="white"/>
</clipPath>
<clipPath id="clip1_5_230">
<rect width="293.587" height="293.587" fill="white" transform="translate(861.477 340) rotate(79.2943)"/>
</clipPath>
</defs>
</svg>
